{"glyphs":{":":{"x_min":0,"x_max":250,"ha":250,"o":"m 180 493 l 180 384 l 71 384 l 71 493 z m 180 110 l 180 0 l 71 0 l 71 110 z"},"$":{"x_min":0,"x_max":586,"ha":586,"o":"m 315 -73 l 256 -73 l 256 21 q 93 39 47 174 l 113 200 q 151 97 256 88 l 256 314 q 142 342 108 386 q 74 430 74 483 q 74 625 256 655 l 256 736 l 315 736 l 315 655 q 459 643 504 526 l 438 505 q 411 584 315 591 l 315 382 q 517 346 517 200 q 517 138 471 84 q 425 31 315 21 z m 256 591 q 206 587 176 560 q 146 533 146 492 q 146 412 256 391 z m 315 88 q 375 90 408 121 q 442 151 442 193 q 442 284 315 301 z"},"?":{"x_min":0,"x_max":505,"ha":505,"o":"m 262 166 l 192 166 q 192 242 194 261 q 196 280 205 299 q 213 317 224 328 q 235 338 276 361 q 321 386 338 400 q 354 414 367 439 q 379 463 379 493 q 379 548 339 580 q 299 612 244 612 q 120 612 93 468 l 20 483 q 57 680 248 680 q 346 680 406 627 q 466 573 466 490 q 466 381 341 316 q 286 287 274 271 q 262 254 262 220 z m 279 96 l 279 0 l 180 0 l 180 96 z"},"<":{"x_min":0,"x_max":586,"ha":586,"o":"m 500 566 l 500 492 l 147 330 l 500 168 l 500 95 l 67 298 l 67 363 z"},"'":{"x_min":0,"x_max":181,"ha":181,"o":"m 115 409 l 66 409 l 52 667 l 130 667 z"},"=":{"x_min":0,"x_max":586,"ha":586,"o":"m 60 455 l 527 455 l 527 387 l 60 387 z m 60 296 l 527 296 l 527 229 l 60 229 z"},"a":{"x_min":0,"x_max":529,"ha":529,"o":"m 463 0 l 387 0 q 382 23 378 89 q 327 -13 205 -13 q 122 -13 78 31 q 33 75 33 136 q 33 211 97 259 q 160 307 312 307 q 333 307 378 305 q 378 364 369 390 q 360 416 331 432 q 301 447 253 447 q 137 447 118 358 l 47 371 q 73 507 265 507 q 367 507 409 462 q 452 417 452 305 l 452 96 q 452 43 463 0 z m 378 247 q 331 250 307 250 q 216 250 166 220 q 115 190 115 133 q 115 97 142 71 q 169 46 221 46 q 290 46 335 96 q 379 146 379 214 q 379 228 378 247 z"},"L":{"x_min":0,"x_max":490,"ha":490,"o":"m 477 73 l 477 0 l 83 0 l 83 667 l 169 667 l 169 73 z"},"3":{"x_min":0,"x_max":586,"ha":586,"o":"m 193 313 l 193 380 l 270 380 q 353 380 389 414 q 425 448 425 497 q 425 551 385 582 q 345 614 284 614 q 172 614 129 505 l 54 527 q 118 680 292 680 q 390 680 450 628 q 510 576 510 503 q 510 446 474 404 q 438 362 381 351 q 444 342 490 298 q 536 254 536 184 q 536 101 468 44 q 400 -13 282 -13 q 188 -13 121 31 q 55 76 29 149 l 107 175 q 142 55 280 55 q 370 55 409 93 q 449 131 449 185 q 449 242 402 278 q 354 313 270 313 z"},";":{"x_min":0,"x_max":250,"ha":250,"o":"m 178 493 l 178 385 l 71 385 l 71 493 z m 178 111 l 178 11 l 104 -125 l 64 -125 l 121 0 l 71 0 l 71 111 z"},"J":{"x_min":0,"x_max":374,"ha":374,"o":"m 297 667 l 297 204 q 297 83 242 35 q 188 -13 97 -13 q 49 -13 0 0 l 0 68 q 48 59 87 59 q 143 59 169 75 q 195 92 204 118 q 213 145 213 204 l 213 667 z"},"V":{"x_min":0,"x_max":537,"ha":537,"o":"m 533 667 l 309 0 l 228 0 l 3 667 l 90 667 l 276 117 l 460 667 z"},"\"":{"x_min":0,"x_max":316,"ha":316,"o":"m 115 409 l 66 409 l 52 667 l 130 667 z m 250 409 l 201 409 l 187 667 l 264 667 z"},"7":{"x_min":0,"x_max":586,"ha":586,"o":"m 281 0 l 195 0 q 195 167 263 326 q 332 484 431 593 l 69 593 l 77 667 l 518 667 l 518 617 q 398 473 339 318 q 280 163 280 23 q 280 15 281 0 z"},"S":{"x_min":0,"x_max":569,"ha":569,"o":"m 10 177 l 85 194 q 131 58 282 58 q 361 58 401 92 q 441 125 441 181 q 441 224 411 250 q 380 275 340 285 l 207 318 q 155 332 122 350 q 89 369 66 408 q 43 447 43 498 q 43 581 106 631 q 169 680 268 680 q 450 680 507 516 l 431 493 q 418 552 369 582 q 320 612 265 612 q 210 612 168 583 q 125 554 125 501 q 125 428 233 402 l 358 372 q 529 331 529 188 q 529 102 465 44 q 400 -13 284 -13 q 77 -13 10 177 z"},"}":{"x_min":0,"x_max":293,"ha":293,"o":"m 173 250 q 112 277 112 363 l 112 524 q 112 577 94 595 q 75 614 20 615 l 20 667 l 37 667 q 119 667 148 634 q 178 600 178 524 l 178 363 q 178 320 191 301 q 205 281 236 273 l 236 225 q 208 218 193 199 q 178 180 178 138 l 178 -36 q 178 -99 149 -133 q 119 -167 41 -167 q 34 -167 20 -167 l 20 -115 q 75 -113 93 -95 q 112 -77 112 -28 l 112 141 q 112 175 122 204 q 132 233 173 250 z"},"Z":{"x_min":0,"x_max":521,"ha":521,"o":"m 498 71 l 498 0 l 27 0 l 27 71 l 389 594 l 44 594 l 44 662 l 487 662 l 487 606 l 121 71 z"},"x":{"x_min":0,"x_max":424,"ha":424,"o":"m 420 0 l 332 0 l 207 200 l 78 0 l 3 0 l 169 256 l 20 493 l 108 493 l 213 325 l 321 493 l 395 493 l 251 272 z"},")":{"x_min":0,"x_max":293,"ha":293,"o":"m 46 667 l 97 667 q 241 478 241 249 q 241 30 97 -167 l 46 -167 q 170 18 170 250 q 170 472 46 667 z"},"&":{"x_min":0,"x_max":667,"ha":667,"o":"m 630 70 l 630 0 q 586 -7 558 -7 q 538 -7 514 0 q 491 7 447 53 q 368 -13 268 -13 q 167 -13 105 45 q 43 103 43 185 q 43 250 87 305 q 131 361 216 389 q 152 481 152 541 q 152 597 192 639 q 233 680 300 680 q 369 680 412 642 q 456 603 456 538 q 456 431 316 365 l 457 152 q 525 238 547 365 l 618 350 q 588 206 496 100 q 527 65 567 65 q 585 65 630 70 z m 282 413 q 361 456 377 482 q 393 509 393 533 q 393 568 368 593 q 343 618 305 618 q 270 618 247 596 q 224 574 224 546 q 224 503 282 413 z m 249 338 q 179 309 153 274 q 127 240 127 188 q 127 117 172 83 q 217 50 277 50 q 354 50 409 103 z"},"_":{"x_min":0,"x_max":500,"ha":500,"o":"m 0 -66 l 500 -66 l 500 -133 l 0 -133 z"},"v":{"x_min":0,"x_max":450,"ha":450,"o":"m 438 493 l 268 0 l 188 0 l 12 493 l 97 493 l 234 92 l 370 493 z"},"O":{"x_min":0,"x_max":631,"ha":631,"o":"m 313 -13 q 185 -13 113 87 q 42 187 42 332 q 42 483 117 582 q 192 680 316 680 q 439 680 514 583 q 589 486 589 339 q 589 197 516 92 q 444 -13 313 -13 z m 315 55 q 403 55 452 134 q 501 214 501 339 q 501 468 450 540 q 399 612 315 612 q 229 612 179 534 q 129 457 129 331 q 129 208 180 132 q 230 55 315 55 z"},"(":{"x_min":0,"x_max":293,"ha":293,"o":"m 247 -167 l 196 -167 q 52 22 52 251 q 52 470 196 667 l 247 667 q 124 482 124 250 q 124 28 247 -167 z"},"C":{"x_min":0,"x_max":579,"ha":579,"o":"m 483 224 l 559 207 q 504 -13 312 -13 q 186 -13 114 89 q 42 191 42 340 q 42 494 117 587 q 192 680 318 680 q 506 680 559 466 l 480 450 q 438 609 318 609 q 229 609 181 535 q 132 461 132 328 q 132 205 182 131 q 232 57 314 57 q 441 57 483 224 z"},"W":{"x_min":0,"x_max":817,"ha":817,"o":"m 798 667 l 638 0 l 554 0 l 409 517 l 273 0 l 188 0 l 19 667 l 105 667 l 239 126 l 380 667 l 448 667 l 601 126 l 725 667 z"},"A":{"x_min":0,"x_max":536,"ha":536,"o":"m 532 0 l 447 0 l 379 195 l 133 195 l 73 0 l 3 0 l 220 667 l 315 667 z m 362 257 l 259 578 l 156 257 z"},"f":{"x_min":0,"x_max":300,"ha":300,"o":"m 281 493 l 281 433 l 164 433 l 164 0 l 87 0 l 87 433 l 3 433 l 3 493 l 87 493 q 89 612 133 646 q 177 680 240 680 q 271 680 310 673 l 310 612 q 285 619 263 619 q 212 619 188 596 q 164 574 164 513 l 164 493 z"},"Q":{"x_min":0,"x_max":631,"ha":631,"o":"m 316 -13 q 188 -13 115 85 q 42 183 42 329 q 42 484 117 582 q 193 680 315 680 q 435 680 512 586 q 589 493 589 339 q 589 211 531 115 q 474 19 384 -5 l 383 -14 q 383 -88 472 -88 q 515 -88 549 -82 l 549 -148 q 516 -159 480 -159 q 403 -159 362 -126 q 321 -94 316 -13 z m 315 55 q 403 55 452 134 q 501 214 501 339 q 501 468 450 540 q 399 612 315 612 q 229 612 179 534 q 129 457 129 331 q 129 208 180 132 q 230 55 315 55 z"},"w":{"x_min":0,"x_max":664,"ha":664,"o":"m 645 493 l 503 0 l 441 0 l 331 366 l 229 0 l 167 0 l 19 493 l 96 493 l 203 125 l 305 493 l 361 493 l 472 124 l 583 493 z"},"-":{"x_min":0,"x_max":250,"ha":250,"o":"m 235 280 l 235 220 l 15 220 l 15 280 z"},"E":{"x_min":0,"x_max":548,"ha":548,"o":"m 515 73 l 515 0 l 83 0 l 83 667 l 505 667 l 505 593 l 167 593 l 167 381 l 436 381 l 436 313 l 167 313 l 167 73 z"},"s":{"x_min":0,"x_max":464,"ha":464,"o":"m 10 128 l 83 143 q 108 50 238 50 q 286 50 319 71 q 352 93 352 132 q 352 190 268 206 l 164 225 q 103 237 66 271 q 30 305 30 361 q 30 423 80 465 q 129 507 212 507 q 373 507 411 381 l 340 366 q 310 443 216 443 q 169 443 139 424 q 109 405 109 370 q 109 315 186 301 l 282 284 q 433 257 433 138 q 433 70 376 29 q 320 -13 227 -13 q 52 -13 10 128 z"},">":{"x_min":0,"x_max":586,"ha":586,"o":"m 86 95 l 86 169 l 440 331 l 86 492 l 86 566 l 520 362 l 520 298 z"},"l":{"x_min":0,"x_max":230,"ha":230,"o":"m 153 0 l 77 0 l 77 667 l 153 667 z"},"8":{"x_min":0,"x_max":586,"ha":586,"o":"m 195 346 q 68 401 68 506 q 68 582 131 631 q 194 680 298 680 q 401 680 461 633 q 522 586 522 510 q 522 404 393 358 q 497 310 524 265 q 550 220 550 175 q 550 95 482 41 q 414 -13 297 -13 q 173 -13 104 42 q 36 97 36 172 q 36 285 195 346 z m 296 387 q 380 410 415 439 q 449 468 449 512 q 449 563 408 590 q 367 617 299 617 q 235 617 194 589 q 153 561 153 513 q 153 466 198 432 q 244 398 296 387 z m 287 311 q 118 271 118 169 q 118 117 164 83 q 210 50 300 50 q 376 50 422 83 q 469 115 469 166 q 469 263 287 311 z"},"\\":{"x_min":0,"x_max":454,"ha":454,"o":"m 436 -167 l 33 667 l 99 667 l 501 -167 z"},"e":{"x_min":0,"x_max":521,"ha":521,"o":"m 402 147 l 474 132 q 454 69 397 28 q 341 -13 264 -13 q 163 -13 101 58 q 38 129 38 244 q 38 362 103 434 q 168 507 266 507 q 363 507 422 440 q 480 373 482 240 l 124 240 q 124 128 170 89 q 217 50 270 50 q 364 50 402 147 z m 398 297 q 397 338 384 371 q 372 403 341 426 q 311 448 269 448 q 211 448 172 407 q 132 366 127 297 z"},"b":{"x_min":0,"x_max":537,"ha":537,"o":"m 114 0 l 77 0 l 77 667 l 153 667 l 153 411 q 206 507 299 507 q 384 507 441 440 q 499 373 499 246 q 499 136 442 61 q 386 -13 295 -13 q 195 -13 141 82 z m 153 193 q 159 118 200 83 q 241 49 287 49 q 346 49 382 100 q 417 151 417 239 q 417 334 383 389 q 348 443 287 443 q 238 443 199 405 q 161 366 153 304 z"},"%":{"x_min":0,"x_max":720,"ha":720,"o":"m 174 327 q 110 327 73 377 q 37 428 37 500 q 37 573 72 623 q 108 673 173 673 q 242 673 277 621 q 312 568 312 499 q 312 430 275 378 q 239 327 174 327 z m 175 365 q 217 365 238 402 q 259 438 259 494 q 259 556 238 596 q 216 635 172 635 q 89 635 89 502 q 89 365 175 365 z m 189 0 l 128 0 l 532 667 l 592 667 z m 547 -7 q 482 -7 446 44 q 409 96 409 167 q 409 240 445 290 q 480 340 545 340 q 614 340 648 287 q 683 234 683 165 q 683 97 647 45 q 611 -7 547 -7 z m 548 32 q 590 32 611 68 q 631 104 631 161 q 631 221 610 261 q 589 302 545 302 q 460 302 460 169 q 460 32 548 32 z"},"m":{"x_min":0,"x_max":814,"ha":814,"o":"m 737 0 l 663 0 l 663 307 q 663 354 656 378 q 649 401 624 421 q 599 441 567 441 q 523 441 482 401 q 441 360 441 278 l 441 0 l 367 0 l 367 325 q 367 390 336 417 q 305 443 271 443 q 222 443 186 401 q 150 359 150 295 l 150 0 l 77 0 l 77 493 l 143 493 l 143 398 q 198 507 294 507 q 348 507 385 472 q 422 438 433 389 q 483 507 588 507 q 639 507 677 478 q 714 449 726 412 q 737 375 737 307 z"},"#":{"x_min":0,"x_max":586,"ha":586,"o":"m 555 471 l 544 411 l 442 411 l 417 271 l 520 271 l 509 211 l 406 211 l 369 0 l 305 0 l 343 211 l 201 211 l 164 0 l 100 0 l 138 211 l 31 211 l 42 271 l 148 271 l 173 411 l 66 411 l 77 471 l 184 471 l 219 667 l 282 667 l 248 471 l 388 471 l 423 667 l 486 667 l 452 471 z m 377 411 l 237 411 l 212 271 l 353 271 z"},",":{"x_min":0,"x_max":250,"ha":250,"o":"m 178 111 l 178 11 l 105 -125 l 64 -125 l 122 0 l 72 0 l 72 111 z"},"n":{"x_min":0,"x_max":542,"ha":542,"o":"m 465 0 l 394 0 l 394 317 q 394 385 364 413 q 334 441 292 441 q 233 441 193 394 q 153 347 153 271 l 153 0 l 77 0 l 77 493 l 148 493 l 148 402 q 208 507 304 507 q 359 507 398 478 q 437 450 451 414 q 465 378 465 285 z"},"h":{"x_min":0,"x_max":540,"ha":540,"o":"m 463 0 l 387 0 l 387 299 q 387 352 380 378 q 374 405 349 424 q 324 443 292 443 q 233 443 193 395 q 153 347 153 266 l 153 0 l 77 0 l 77 667 l 153 667 l 153 402 q 206 507 303 507 q 346 507 380 490 q 414 473 432 445 q 450 417 457 390 q 463 363 463 299 z"},"z":{"x_min":0,"x_max":423,"ha":423,"o":"m 396 59 l 396 0 l 33 0 l 33 59 l 295 433 l 53 433 l 53 493 l 396 493 l 396 452 l 125 59 z"},"B":{"x_min":0,"x_max":604,"ha":604,"o":"m 83 0 l 83 667 l 347 667 q 447 667 495 618 q 543 569 543 504 q 543 391 425 354 q 495 336 529 290 q 563 243 563 185 q 563 106 510 53 q 458 0 347 0 z m 164 381 l 309 381 q 399 381 430 415 q 460 450 460 496 q 460 542 427 570 q 395 599 331 599 l 164 599 z m 164 73 l 343 73 q 408 73 444 105 q 479 137 479 188 q 479 223 463 254 q 447 284 418 301 q 389 317 331 317 l 164 317 z"},"K":{"x_min":0,"x_max":628,"ha":628,"o":"m 610 0 l 519 0 l 320 368 l 167 178 l 167 0 l 83 0 l 83 667 l 167 667 l 167 280 l 468 667 l 559 667 l 378 433 z"},"R":{"x_min":0,"x_max":613,"ha":613,"o":"m 563 0 l 476 0 l 353 289 l 162 289 l 162 0 l 83 0 l 83 667 l 346 667 q 453 667 505 608 q 556 550 556 480 q 556 427 527 378 q 499 330 432 309 z m 162 356 l 336 356 q 405 356 439 393 q 473 429 473 482 q 473 535 437 564 q 401 593 346 593 l 162 593 z"},"T":{"x_min":0,"x_max":485,"ha":485,"o":"m 284 0 l 201 0 l 201 593 l 10 593 l 10 667 l 476 667 l 476 593 l 284 593 z"},"P":{"x_min":0,"x_max":559,"ha":559,"o":"m 167 0 l 83 0 l 83 667 l 320 667 q 431 667 483 606 q 536 546 536 469 q 536 383 479 327 q 421 271 329 271 l 167 271 z m 167 340 l 320 340 q 379 340 416 375 q 452 411 452 469 q 452 519 419 558 q 387 597 326 597 l 167 597 z"},"|":{"x_min":0,"x_max":500,"ha":500,"o":"m 213 667 l 288 667 l 288 -167 l 213 -167 z"},"t":{"x_min":0,"x_max":308,"ha":308,"o":"m 300 53 l 300 -8 q 260 -13 230 -13 q 87 -13 87 136 l 87 433 l 0 433 l 0 493 l 87 493 l 90 617 l 162 624 l 162 493 l 272 493 l 272 433 l 162 433 l 162 124 q 162 47 241 47 q 267 47 300 53 z"},"M":{"x_min":0,"x_max":810,"ha":810,"o":"m 727 0 l 646 0 l 646 582 l 429 0 l 373 0 l 154 582 l 154 0 l 83 0 l 83 667 l 208 667 l 408 133 l 605 667 l 727 667 z"},"g":{"x_min":0,"x_max":491,"ha":491,"o":"m 479 570 l 479 509 q 427 509 409 497 q 391 485 385 453 q 433 398 433 334 q 433 267 381 218 q 330 170 243 170 q 223 170 209 173 q 182 178 175 178 q 162 178 144 165 q 125 152 125 132 q 125 103 152 94 q 179 85 278 83 q 363 80 403 71 q 443 62 471 31 q 499 0 499 -45 q 499 -186 251 -186 q 133 -186 79 -151 q 25 -115 25 -56 q 25 16 101 42 q 52 74 52 122 q 52 179 121 209 q 57 261 57 340 q 57 413 111 460 q 166 507 245 507 q 300 507 346 486 q 353 534 380 553 q 406 571 460 571 q 466 571 479 570 z m 245 229 q 294 229 325 259 q 355 289 355 336 q 355 385 323 416 q 292 447 246 447 q 203 447 169 418 q 135 389 135 335 q 135 288 166 258 q 196 229 245 229 z m 153 20 q 100 -3 100 -48 q 100 -85 144 -106 q 188 -127 256 -127 q 320 -127 373 -109 q 425 -91 425 -49 q 425 -26 410 -11 q 394 3 367 7 q 340 11 272 13 q 192 15 153 20 z"},"j":{"x_min":0,"x_max":229,"ha":229,"o":"m 157 667 l 157 582 l 70 582 l 70 667 z m 153 499 l 153 -15 q 153 -102 112 -136 q 71 -170 11 -170 q -18 -170 -61 -160 l -61 -100 q -29 -107 -4 -107 q 39 -107 58 -87 q 77 -66 77 -15 l 77 499 z"},"i":{"x_min":0,"x_max":229,"ha":229,"o":"m 156 667 l 156 582 l 73 582 l 73 667 z m 153 493 l 153 0 l 77 0 l 77 493 z"},"y":{"x_min":0,"x_max":415,"ha":415,"o":"m 415 493 l 217 -58 q 174 -177 80 -177 q 50 -177 14 -167 l 14 -106 q 44 -113 65 -113 q 102 -113 127 -92 q 151 -71 176 9 l 5 493 l 83 493 l 215 123 l 351 493 z"},"@":{"x_min":0,"x_max":745,"ha":745,"o":"m 543 509 l 516 281 q 513 255 513 237 q 513 203 546 203 q 583 203 614 255 q 645 307 645 376 q 645 487 570 553 q 495 620 385 620 q 270 620 188 537 q 105 455 105 333 q 105 218 183 133 q 261 48 401 48 q 512 48 620 104 l 642 44 q 527 -13 401 -13 q 235 -13 137 89 q 40 191 40 333 q 40 481 142 581 q 243 680 387 680 q 523 680 614 594 q 705 508 705 383 q 705 287 656 213 q 607 140 537 140 q 479 140 458 199 q 413 138 349 138 q 283 138 239 189 q 195 241 195 320 q 195 406 245 461 q 295 517 367 517 q 436 517 472 460 l 478 509 z m 353 203 q 396 203 427 246 q 458 290 458 348 q 458 395 434 423 q 409 452 374 452 q 332 452 301 415 q 271 377 271 317 q 271 265 295 234 q 319 203 353 203 z"},".":{"x_min":0,"x_max":250,"ha":250,"o":"m 180 109 l 180 0 l 71 0 l 71 109 z"},"p":{"x_min":0,"x_max":534,"ha":534,"o":"m 153 -167 l 77 -167 l 77 493 l 146 493 l 146 397 q 198 507 301 507 q 389 507 442 434 q 496 361 496 249 q 496 128 441 58 q 386 -13 299 -13 q 207 -13 153 75 z m 153 318 l 153 179 q 161 123 201 86 q 241 50 284 50 q 334 50 373 94 q 412 138 412 246 q 412 339 377 389 q 342 440 284 440 q 238 440 201 404 q 165 369 153 318 z"},"X":{"x_min":0,"x_max":520,"ha":520,"o":"m 491 667 l 304 361 l 518 0 l 423 0 l 255 284 l 80 0 l 2 0 l 216 345 l 26 667 l 119 667 l 265 420 l 415 667 z"},"*":{"x_min":0,"x_max":586,"ha":586,"o":"m 274 483 l 255 667 l 331 667 l 312 483 l 485 559 l 508 488 l 319 451 l 444 313 l 383 271 l 293 429 l 204 271 l 142 313 l 267 451 l 78 488 l 101 559 z"},"Y":{"x_min":0,"x_max":510,"ha":510,"o":"m 520 667 l 297 280 l 297 0 l 213 0 l 213 280 l -10 667 l 88 667 l 266 360 l 444 667 z"},"c":{"x_min":0,"x_max":466,"ha":466,"o":"m 368 173 l 438 161 q 423 79 373 33 q 322 -13 247 -13 q 145 -13 92 62 q 38 137 38 246 q 38 358 94 432 q 151 507 248 507 q 329 507 377 459 q 426 411 438 334 l 368 321 q 349 443 250 443 q 187 443 152 389 q 118 335 118 250 q 118 155 152 102 q 186 50 248 50 q 343 50 368 173 z"},"!":{"x_min":0,"x_max":269,"ha":269,"o":"m 154 166 l 113 166 l 77 667 l 192 667 z m 186 0 l 83 0 l 83 104 l 186 104 z"},"/":{"x_min":0,"x_max":454,"ha":454,"o":"m 19 -167 l -47 -167 l 355 667 l 421 667 z"},"[":{"x_min":0,"x_max":293,"ha":293,"o":"m 252 -167 l 79 -167 l 79 667 l 252 667 l 252 615 l 146 615 l 146 -115 l 252 -115 z"},"6":{"x_min":0,"x_max":586,"ha":586,"o":"m 536 530 l 460 510 q 422 611 320 611 q 132 611 128 301 q 158 370 212 403 q 267 437 328 437 q 421 437 484 372 q 546 307 546 217 q 546 123 480 55 q 413 -13 309 -13 q 191 -13 121 76 q 51 165 51 318 q 51 468 117 574 q 183 680 322 680 q 481 680 536 530 z m 308 54 q 378 54 424 100 q 469 147 469 212 q 469 277 425 323 q 380 369 315 369 q 248 369 197 321 q 147 272 147 208 q 147 147 192 101 q 237 54 308 54 z"},"r":{"x_min":0,"x_max":330,"ha":330,"o":"m 153 0 l 77 0 l 77 493 l 144 493 l 144 378 q 180 459 216 484 q 251 508 289 508 q 301 508 319 506 l 319 433 l 304 433 q 240 433 198 385 q 156 338 153 261 z"},"2":{"x_min":0,"x_max":586,"ha":586,"o":"m 525 69 l 525 0 l 52 0 l 52 69 q 332 279 386 346 q 440 413 440 478 q 440 539 395 577 q 349 614 290 614 q 229 614 182 573 q 135 532 129 461 l 52 484 q 101 680 291 680 q 394 680 458 622 q 523 563 523 479 q 523 420 492 367 q 462 313 377 238 q 292 164 157 69 z"},"{":{"x_min":0,"x_max":293,"ha":293,"o":"m 120 250 q 182 223 182 137 l 182 -24 q 182 -77 200 -95 q 218 -114 273 -115 l 273 -167 l 256 -167 q 178 -167 146 -135 q 115 -102 115 -24 l 115 137 q 115 182 100 201 q 86 220 58 227 l 58 275 q 85 282 100 301 q 115 320 115 362 l 115 536 q 115 607 149 637 q 183 667 252 667 q 259 667 273 667 l 273 615 q 218 613 200 595 q 182 577 182 528 l 182 359 q 182 327 172 297 q 162 268 120 250 z"},"9":{"x_min":0,"x_max":586,"ha":586,"o":"m 57 122 l 124 146 q 166 54 264 54 q 359 54 407 134 q 455 214 457 351 q 391 231 260 231 q 167 231 104 294 q 41 357 41 451 q 41 545 107 613 q 173 680 276 680 q 401 680 468 592 q 535 504 535 350 q 535 188 464 87 q 394 -13 263 -13 q 110 -13 57 122 z m 278 298 q 347 298 394 346 q 440 394 440 458 q 440 521 396 566 q 352 611 280 611 q 207 611 164 565 q 122 519 122 452 q 122 381 169 339 q 216 298 278 298 z"}," ":{"x_min":0,"x_max":250,"ha":250,"o":""},"I":{"x_min":0,"x_max":250,"ha":250,"o":"m 167 0 l 83 0 l 83 667 l 167 667 z"},"H":{"x_min":0,"x_max":643,"ha":643,"o":"m 560 0 l 476 0 l 476 317 l 167 317 l 167 0 l 83 0 l 83 667 l 167 667 l 167 391 l 476 391 l 476 667 l 560 667 z"},"4":{"x_min":0,"x_max":586,"ha":586,"o":"m 441 0 l 360 0 l 360 159 l 31 159 l 31 215 l 336 681 l 441 681 l 441 225 l 549 225 l 549 159 l 441 159 z m 360 225 l 360 540 q 360 574 362 614 q 341 575 326 551 l 118 225 z"},"~":{"x_min":0,"x_max":586,"ha":586,"o":"m 53 286 q 105 402 190 402 q 231 402 302 368 q 367 336 399 336 q 451 336 489 403 l 534 377 q 478 264 397 264 q 356 264 272 304 q 217 329 182 329 q 135 329 97 257 z"},"D":{"x_min":0,"x_max":647,"ha":647,"o":"m 83 0 l 83 667 l 307 667 q 448 667 527 570 q 605 474 605 335 q 605 194 529 97 q 452 0 334 0 z m 167 71 l 302 71 q 410 71 465 145 q 521 219 521 341 q 521 439 468 518 q 415 597 302 597 l 167 597 z"},"^":{"x_min":0,"x_max":500,"ha":500,"o":"m 476 364 l 394 364 l 249 609 l 105 364 l 24 364 l 201 668 l 299 668 z"},"0":{"x_min":0,"x_max":586,"ha":586,"o":"m 294 -13 q 179 -13 110 87 q 41 187 41 334 q 41 480 106 580 q 172 680 292 680 q 417 680 481 576 q 546 471 546 331 q 546 193 479 90 q 413 -13 294 -13 z m 294 52 q 379 52 419 129 q 460 205 460 321 q 460 447 418 531 q 377 615 291 615 q 207 615 166 539 q 125 462 125 337 q 125 207 168 130 q 211 52 294 52 z"},"F":{"x_min":0,"x_max":508,"ha":508,"o":"m 167 0 l 83 0 l 83 667 l 492 667 l 492 593 l 167 593 l 167 383 l 436 383 l 436 315 l 167 315 z"},"`":{"x_min":0,"x_max":500,"ha":500,"o":"m 92 662 l 122 721 l 315 609 l 294 570 z"},"k":{"x_min":0,"x_max":501,"ha":501,"o":"m 484 0 l 404 0 l 260 275 l 153 152 l 153 0 l 77 0 l 77 667 l 153 667 l 153 240 l 382 493 l 464 493 l 310 320 z"},"u":{"x_min":0,"x_max":542,"ha":542,"o":"m 465 0 l 396 0 l 396 94 q 343 -13 239 -13 q 163 -13 120 37 q 77 86 77 178 l 77 493 l 153 493 l 153 178 q 153 105 184 77 q 214 50 251 50 q 288 50 318 71 q 348 92 368 131 q 388 169 388 215 l 388 493 l 465 493 z"},"]":{"x_min":0,"x_max":293,"ha":293,"o":"m 42 667 l 214 667 l 214 -167 l 42 -167 l 42 -115 l 147 -115 l 147 615 l 42 615 z"},"U":{"x_min":0,"x_max":606,"ha":606,"o":"m 463 667 l 533 667 l 533 231 q 533 101 469 44 q 404 -13 300 -13 q 185 -13 129 45 q 73 104 73 231 l 73 667 l 157 667 l 157 231 q 157 154 175 122 q 193 90 229 75 q 266 60 306 60 q 383 60 423 101 q 463 141 463 231 z"},"o":{"x_min":0,"x_max":520,"ha":520,"o":"m 253 -13 q 152 -13 95 62 q 38 137 38 249 q 38 366 102 437 q 166 507 261 507 q 363 507 422 433 q 481 359 481 248 q 481 133 417 60 q 354 -13 253 -13 z m 259 50 q 318 50 357 98 q 397 146 397 249 q 397 351 355 397 q 314 443 258 443 q 201 443 162 397 q 122 350 122 249 q 122 142 162 96 q 201 50 259 50 z"},"N":{"x_min":0,"x_max":657,"ha":657,"o":"m 574 0 l 493 0 l 148 581 l 149 537 q 151 512 151 495 l 151 0 l 83 0 l 83 667 l 188 667 l 510 123 l 509 169 q 508 197 508 218 l 508 667 l 574 667 z"},"+":{"x_min":0,"x_max":586,"ha":586,"o":"m 60 368 l 257 368 l 257 573 l 330 573 l 330 368 l 527 368 l 527 300 l 330 300 l 330 95 l 257 95 l 257 300 l 60 300 z"},"G":{"x_min":0,"x_max":647,"ha":647,"o":"m 577 336 l 577 -9 l 526 -9 l 503 75 q 441 -13 320 -13 q 188 -13 115 86 q 42 185 42 327 q 42 478 119 579 q 197 680 330 680 q 514 680 570 487 l 491 468 q 474 542 427 576 q 380 609 325 609 q 226 609 179 530 q 132 450 132 330 q 132 201 185 128 q 237 55 328 55 q 398 55 445 101 q 492 148 492 230 q 492 245 491 266 l 326 266 l 326 336 z"},"q":{"x_min":0,"x_max":536,"ha":536,"o":"m 459 500 l 459 -167 l 382 -167 l 382 90 q 334 -13 233 -13 q 149 -13 94 54 q 38 122 38 243 q 38 357 94 432 q 149 507 240 507 q 283 507 319 490 q 354 473 390 413 l 420 500 z m 382 285 q 376 372 336 408 q 295 443 250 443 q 193 443 158 389 q 122 335 122 246 q 122 159 156 106 q 190 52 249 52 q 309 52 345 103 q 382 154 382 220 z"},"d":{"x_min":0,"x_max":539,"ha":539,"o":"m 462 667 l 462 0 l 392 0 l 392 84 q 340 -13 236 -13 q 150 -13 94 59 q 39 132 39 243 q 39 356 94 431 q 149 507 240 507 q 329 507 385 426 l 385 667 z m 385 303 q 385 368 346 407 q 306 446 253 446 q 196 446 159 395 q 123 344 123 252 q 123 153 156 102 q 190 50 250 50 q 303 50 344 95 q 385 140 385 200 z"},"1":{"x_min":0,"x_max":586,"ha":586,"o":"m 559 62 l 559 0 l 92 0 l 92 62 l 292 62 l 292 577 q 204 484 108 433 l 108 517 q 240 585 312 680 l 372 680 l 372 62 z"},"5":{"x_min":0,"x_max":586,"ha":586,"o":"m 489 667 l 482 595 l 154 595 l 140 378 q 214 451 303 451 q 397 451 465 386 q 533 321 533 220 q 533 118 459 52 q 385 -13 278 -13 q 194 -13 129 31 q 63 75 43 145 l 114 169 q 158 53 279 53 q 359 53 406 100 q 453 147 453 220 q 453 297 406 340 q 360 383 295 383 q 200 383 138 292 l 72 306 l 94 667 z"}}}
